<svg xmlns="http://www.w3.org/2000/svg" xmlns:xlink="http://www.w3.org/1999/xlink" fill="none" height="185" style="fill: none;" viewBox="0 0 400 185" width="400"><g clip-path="url(#a)"><mask height="185" id="b" maskUnits="userSpaceOnUse" style="mask-type:luminance" width="400" x="0" y="0"><path d="M400 0H0V184.091H400V0Z" fill="#fff"></path></mask><g mask="url(#b)"><path d="M26.0489 91.9886C38.5057 88.1818 43.8693 78.667 43.8693 66.9011V32.6432C43.8693 22.7818 48.8864 17.5909 58.7489 17.5909H64.2852C65.6693 17.5909 66.3614 16.7261 66.3614 15.342V3.23067C66.4016 2.94867 66.3756 2.66116 66.2854 2.39095C66.1953 2.12074 66.0435 1.87522 65.842 1.67382C65.6406 1.47238 65.3951 1.32059 65.1249 1.23045C64.8547 1.14032 64.5672 1.11434 64.2852 1.15454H55.2898C35.3932 1.15454 23.8011 12.7454 23.8011 32.6432V73.4738C23.8011 79.875 20.1648 83.8545 13.7659 83.8545H3.55908C2.00226 83.8545 1.13635 84.5466 1.13635 85.9307V98.042C1.13635 99.4261 2.00113 100.118 3.55908 100.118H13.767C20.1682 100.118 23.8023 104.095 23.8023 110.499V151.33C23.8023 171.226 35.3932 182.818 55.2909 182.818H64.2875C64.5695 182.858 64.857 182.832 65.1272 182.742C65.3974 182.652 65.6429 182.5 65.8443 182.299C66.0458 182.097 66.1976 181.852 66.2877 181.582C66.3778 181.312 66.4038 181.024 66.3636 180.742V168.631C66.3636 167.247 65.6716 166.382 64.2875 166.382H58.75C48.8886 166.382 43.8704 161.191 43.8704 151.33V117.075C43.8704 105.311 38.3341 95.6216 26.0489 91.9886Z" fill="#fff"></path><path d="M121.84 46.4147C121.84 28.4886 117.198 17.0454 103.594 17.0454C89.9909 17.0454 85.4284 28.4886 85.4284 46.4977C85.4284 64.3386 90.0705 75.9477 103.594 75.9477C117.199 75.9443 121.84 64.3386 121.84 46.4147ZM110.874 46.4977C110.874 60.5818 108.312 66.7443 103.592 66.7443C98.95 66.7443 96.3898 60.5818 96.3898 46.4977C96.3898 32.4136 98.9511 26.2511 103.592 26.2511C108.316 26.2488 110.874 32.4068 110.874 46.4977ZM146.725 53.6204H151.043C164.087 53.6204 170.09 47.2988 170.09 35.534C170.09 23.85 164.087 17.6079 151.124 17.6079H137.365C137.236 17.5959 137.106 17.6125 136.984 17.6565C136.862 17.7005 136.751 17.7708 136.659 17.8624C136.567 17.9542 136.497 18.065 136.453 18.1869C136.409 18.3089 136.393 18.439 136.405 18.5681V74.4261C136.393 74.5552 136.409 74.6854 136.453 74.8073C136.497 74.9293 136.567 75.0401 136.659 75.1318C136.751 75.2234 136.862 75.2937 136.984 75.3377C137.106 75.3817 137.236 75.3983 137.365 75.3863H145.848C146.408 75.3863 146.728 75.0659 146.728 74.4261L146.725 53.6204ZM146.725 44.5772V27.209C146.725 26.7284 146.885 26.5693 147.365 26.5693H151.215C156.736 26.5693 159.617 28.8897 159.617 35.6125C159.617 42.3352 156.736 44.575 151.215 44.575L146.725 44.5772ZM217.868 46.4181C217.868 28.492 213.226 17.0488 199.623 17.0488C186.019 17.0488 181.459 28.4886 181.459 46.4977C181.459 64.3386 186.101 75.9477 199.625 75.9477C213.23 75.9477 217.87 64.3386 217.87 46.4147L217.868 46.4181ZM206.905 46.4977C206.905 60.5818 204.343 66.7443 199.623 66.7443C194.981 66.7443 192.42 60.5818 192.42 46.4977C192.42 32.4136 194.984 26.2488 199.624 26.2488C204.347 26.2488 206.908 32.4068 206.908 46.4977H206.905ZM243.636 18.5693C243.648 18.4402 243.632 18.31 243.588 18.1881C243.544 18.0661 243.473 17.9553 243.382 17.8636C243.29 17.772 243.179 17.7016 243.057 17.6576C242.935 17.6136 242.805 17.5971 242.676 17.609H234.274C234.143 17.5903 234.01 17.6023 233.885 17.6439C233.76 17.6855 233.647 17.7557 233.553 17.8488C233.46 17.9421 233.39 18.0557 233.348 18.1807C233.307 18.3058 233.295 18.4388 233.314 18.5693V74.4272C233.295 74.5577 233.307 74.6907 233.348 74.8158C233.39 74.9408 233.46 75.0545 233.553 75.1477C233.647 75.2408 233.76 75.311 233.885 75.3526C234.01 75.3942 234.143 75.4062 234.274 75.3875H263.726C263.857 75.4062 263.99 75.3942 264.115 75.3526C264.24 75.311 264.353 75.2408 264.447 75.1477C264.54 75.0545 264.61 74.9408 264.652 74.8158C264.693 74.6907 264.705 74.5577 264.686 74.4272V67.3045C264.686 66.7443 264.366 66.4238 263.726 66.4238H244.2C243.8 66.4238 243.64 66.2636 243.64 65.784L243.636 18.5693ZM290.611 42.017V27.209C290.611 26.7284 290.772 26.5693 291.172 26.5693H311.74C311.863 26.5834 311.987 26.5709 312.105 26.5327C312.222 26.4944 312.33 26.4313 312.422 26.3477C312.513 26.2642 312.585 26.1622 312.633 26.0485C312.681 25.9348 312.704 25.8121 312.701 25.6886V18.5659C312.713 18.4368 312.697 18.3066 312.653 18.1846C312.609 18.0627 312.538 17.9519 312.447 17.8602C312.355 17.7685 312.244 17.6982 312.122 17.6542C312 17.6102 311.87 17.5936 311.741 17.6056H281.173C280.613 17.6056 280.292 17.9261 280.292 18.5659V74.4238C280.292 75.0636 280.613 75.384 281.173 75.384H311.741C311.87 75.396 312 75.3794 312.122 75.3354C312.244 75.2915 312.355 75.2211 312.447 75.1295C312.538 75.0378 312.609 74.927 312.653 74.805C312.697 74.6831 312.713 74.5529 312.701 74.4238V67.3011C312.704 67.1776 312.681 67.0549 312.633 66.9412C312.585 66.8275 312.513 66.7254 312.422 66.642C312.33 66.5583 312.222 66.4952 312.105 66.457C311.987 66.4188 311.863 66.4063 311.74 66.4204H291.172C290.772 66.4204 290.611 66.2602 290.611 65.7806V50.9761H306.457C307.017 50.9761 307.337 50.6556 307.337 50.0159V42.9704C307.337 42.3306 307.017 42.0102 306.457 42.0102L290.611 42.017Z" fill="#fff"></path><path d="M166.501 154.661H162.99C162.589 154.661 162.387 154.46 162.387 153.859V106.109C162.387 105.507 162.689 105.307 163.09 105.307H166.601C173.523 105.307 177.836 111.225 177.836 129.984C177.836 148.743 173.518 154.661 166.501 154.661ZM167.806 166.198C184.056 166.198 191.28 154.06 191.28 129.984C191.28 105.908 184.057 93.7704 167.806 93.7704H150.647C150.485 93.7555 150.322 93.7764 150.169 93.8316C150.016 93.8867 149.877 93.9749 149.762 94.0897C149.648 94.2046 149.559 94.3434 149.504 94.4962C149.449 94.649 149.428 94.8121 149.443 94.9738V164.994C149.428 165.156 149.449 165.319 149.504 165.472C149.559 165.625 149.648 165.763 149.762 165.878C149.877 165.993 150.016 166.081 150.169 166.137C150.322 166.192 150.485 166.213 150.647 166.198H167.806ZM223.681 124.367V105.809C223.681 105.207 223.882 105.007 224.383 105.007H250.164C250.317 105.024 250.473 105.009 250.62 104.961C250.768 104.913 250.903 104.834 251.017 104.73C251.131 104.625 251.221 104.497 251.282 104.354C251.342 104.212 251.371 104.058 251.367 103.903V94.975C251.382 94.8132 251.361 94.6501 251.306 94.4973C251.251 94.3445 251.163 94.2058 251.048 94.0909C250.933 93.976 250.794 93.8879 250.641 93.8327C250.488 93.7775 250.325 93.7566 250.164 93.7716H211.842C211.14 93.7716 210.739 94.1727 210.739 94.975V164.994C210.739 165.797 211.14 166.198 211.842 166.198H250.162C250.324 166.213 250.487 166.192 250.64 166.137C250.793 166.081 250.932 165.993 251.047 165.878C251.161 165.763 251.25 165.625 251.305 165.472C251.36 165.319 251.381 165.156 251.366 164.994V156.062C251.37 155.908 251.341 155.754 251.281 155.611C251.22 155.469 251.13 155.341 251.016 155.236C250.902 155.132 250.766 155.053 250.619 155.005C250.472 154.957 250.316 154.942 250.162 154.959H224.382C223.881 154.959 223.68 154.758 223.68 154.157V135.608H243.542C244.244 135.608 244.645 135.207 244.645 134.405V125.577C244.645 124.775 244.244 124.374 243.542 124.374L223.681 124.367ZM297.317 166.198C297.563 166.186 297.797 166.09 297.979 165.925C298.162 165.761 298.283 165.538 298.32 165.295L313.468 95.0761C313.517 94.9302 313.532 94.7747 313.51 94.6222C313.489 94.4697 313.432 94.3243 313.344 94.1977C313.257 94.0709 313.141 93.9664 313.006 93.8924C312.87 93.8184 312.72 93.777 312.566 93.7716H302.428C301.726 93.7716 301.425 93.9727 301.325 94.6738L290.69 153.358L280.057 94.775C279.856 94.0727 279.656 93.7716 278.953 93.7716H267.817C267.215 93.7716 266.814 94.3738 267.015 95.2761L282.061 165.295C282.106 165.553 282.243 165.786 282.445 165.952C282.648 166.117 282.903 166.205 283.165 166.198H297.317Z" fill="#fff"></path><path d="M117.749 158.674C117.749 163.891 114.739 166.9 109.523 166.9C104.306 166.9 101.292 163.891 101.292 158.676C101.292 153.562 104.306 150.348 109.523 150.348C114.74 150.348 117.749 153.56 117.749 158.674Z" fill="#FFA200"></path><path d="M374.118 91.9704C361.834 95.6068 356.298 105.292 356.298 117.057V151.314C356.298 161.175 351.281 166.366 341.245 166.366H335.882C335.58 166.342 335.277 166.384 334.994 166.488C334.71 166.593 334.452 166.758 334.239 166.972C334.025 167.185 333.86 167.443 333.755 167.727C333.651 168.01 333.609 168.313 333.633 168.615V180.726C333.633 182.11 334.498 182.802 335.882 182.802H344.878C364.775 182.802 376.367 171.211 376.367 151.314V110.483C376.367 104.082 380.003 100.102 386.402 100.102H396.618C398.175 100.102 398.867 99.4102 398.867 98.0261V85.9204C398.867 84.5363 398.175 83.8443 396.618 83.8443H386.407C380.006 83.8443 376.372 79.867 376.372 73.4636V32.625C376.372 12.7284 364.781 1.13635 344.883 1.13635H335.886C334.502 1.13635 333.637 1.82839 333.637 3.21248V15.3238C333.614 15.6252 333.655 15.9282 333.76 16.2119C333.864 16.4956 334.029 16.7532 334.243 16.967C334.457 17.1808 334.715 17.3457 334.998 17.4503C335.282 17.5549 335.585 17.5966 335.886 17.5727H341.25C351.285 17.5727 356.302 22.7636 356.302 32.625V66.8818C356.302 78.6477 361.666 88.1647 374.118 91.9704Z" fill="#fff"></path></g></g><defs><clipPath id="a"><path d="M0 0H400V184.091H0z" fill="#fff"></path></clipPath></defs></svg>